<svg width="106" height="32" viewBox="0 0 106 32" fill="none" xmlns="http://www.w3.org/2000/svg">
<path d="M7.65257 27.3197C6.69205 27.7509 4.83435 28.4371 3.8858 27.6152C3.22658 27.044 3.26325 25.6039 3.31014 24.8167C3.45904 22.3247 4.87551 19.8669 6.37304 17.9354C8.16338 15.6268 10.8429 13.8651 13.7629 13.7666C15.9795 13.6918 18.1632 14.5814 19.8939 15.9682C21.6247 17.355 22.9324 19.2117 23.9368 21.1889C24.4269 22.1536 24.8577 23.185 24.8741 24.267C24.8903 25.349 24.412 26.4963 23.4609 27.0124C22.6984 27.4262 21.7566 27.3775 20.9315 27.1094C20.1064 26.8415 19.3629 26.3751 18.5989 25.9638C17.1897 25.2053 15.6261 24.6147 14.0288 24.7117C11.7194 24.8524 9.76343 26.3719 7.65257 27.3197Z" fill="black"/>
<path d="M5.46221 15.1434C5.74581 17.4808 3.97017 18.7523 2.15663 16.9951C1.04446 15.9176 0.178717 14.0008 0.0235771 12.4596C-0.0544918 11.683 0.0405378 10.8052 0.62618 10.2892C1.18738 9.79458 2.06484 9.79184 2.73454 10.1253C3.40424 10.4588 3.89535 11.0681 4.2812 11.7091C4.90999 12.754 5.3153 13.9327 5.46221 15.1434Z" fill="url(#paint0_linear_284_305)"/>
<path d="M12.1667 8.8491C12.5403 10.4222 12.0966 12.8501 9.9713 12.6715C7.4272 12.4577 7.13164 8.06766 7.40675 6.25861C7.50976 5.58018 7.7734 4.82269 8.41316 4.57477C8.85364 4.40391 9.3667 4.53511 9.75555 4.80373C10.1442 5.07211 10.431 5.46146 10.6986 5.85081C11.3319 6.77342 11.9081 7.76013 12.1667 8.8491Z" fill="black"/>
<path d="M21.0137 7.82031C21.0367 6.77798 20.8042 5.68376 20.1198 4.89734C19.4354 4.11091 18.2257 3.73104 17.3018 4.21417C16.3428 4.71551 15.9899 5.89877 15.8317 6.96904C15.6167 8.42241 15.2698 11.0932 16.3313 12.3176C16.9958 13.0841 17.9922 12.6853 18.7542 12.2426C20.249 11.3736 20.9776 9.47647 21.0137 7.82031Z" fill="black"/>
<path d="M27.274 17.3564C25.7773 18.7681 22.7178 18.3306 22.988 15.8955C23.1705 14.2483 24.2917 12.5513 25.3078 11.2874C25.9277 10.5167 26.8345 9.77245 27.8001 9.9872C28.5658 10.1576 29.0926 10.9133 29.2265 11.6863C29.3602 12.4592 29.1774 13.2494 28.9696 14.0059C28.6336 15.2285 28.1966 16.4864 27.274 17.3564Z" fill="black"/>
<path d="M43.112 15C43.672 15 44.0986 14.8733 44.392 14.62C44.6986 14.3533 44.852 13.9533 44.852 13.42C44.852 12.9133 44.692 12.5267 44.372 12.26C44.0653 11.98 43.612 11.84 43.012 11.84C42.7986 11.84 42.6186 11.8467 42.472 11.86C42.3386 11.86 42.1986 11.8733 42.052 11.9V15H43.112ZM42.072 21.42C41.9253 21.46 41.692 21.5 41.372 21.54C41.0653 21.58 40.7586 21.6 40.452 21.6C40.1453 21.6 39.872 21.5733 39.632 21.52C39.4053 21.48 39.212 21.4 39.052 21.28C38.892 21.16 38.772 20.9933 38.692 20.78C38.612 20.5667 38.572 20.2867 38.572 19.94V10.52C38.572 10.24 38.6453 10.0267 38.792 9.88C38.952 9.72 39.1653 9.59333 39.432 9.5C39.8853 9.34 40.3986 9.22667 40.972 9.16C41.5586 9.08 42.1453 9.04 42.732 9.04C44.572 9.04 45.9786 9.43333 46.952 10.22C47.9253 11.0067 48.412 12.0733 48.412 13.42C48.412 14.0733 48.3053 14.6667 48.092 15.2C47.892 15.72 47.5853 16.1733 47.172 16.56C46.772 16.9333 46.2586 17.2267 45.632 17.44C45.0186 17.64 44.3053 17.74 43.492 17.74H42.072V21.42ZM54.7801 21.82C53.9934 21.82 53.2601 21.7133 52.5801 21.5C51.9134 21.2733 51.3268 20.94 50.8201 20.5C50.3268 20.06 49.9334 19.5067 49.6401 18.84C49.3601 18.1733 49.2201 17.3933 49.2201 16.5C49.2201 15.62 49.3601 14.8667 49.6401 14.24C49.9334 13.6 50.3134 13.08 50.7801 12.68C51.2468 12.2667 51.7801 11.9667 52.3801 11.78C52.9801 11.58 53.5934 11.48 54.2201 11.48C54.9268 11.48 55.5668 11.5867 56.1401 11.8C56.7268 12.0133 57.2268 12.3067 57.6401 12.68C58.0668 13.0533 58.3934 13.5 58.6201 14.02C58.8601 14.54 58.9801 15.1067 58.9801 15.72C58.9801 16.1733 58.8534 16.52 58.6001 16.76C58.3468 17 57.9934 17.1533 57.5401 17.22L52.6001 17.96C52.7468 18.4 53.0468 18.7333 53.5001 18.96C53.9534 19.1733 54.4734 19.28 55.0601 19.28C55.6068 19.28 56.1201 19.2133 56.6001 19.08C57.0934 18.9333 57.4934 18.7667 57.8001 18.58C58.0134 18.7133 58.1934 18.9 58.3401 19.14C58.4868 19.38 58.5601 19.6333 58.5601 19.9C58.5601 20.5 58.2801 20.9467 57.7201 21.24C57.2934 21.4667 56.8134 21.62 56.2801 21.7C55.7468 21.78 55.2468 21.82 54.7801 21.82ZM54.2201 13.96C53.9001 13.96 53.6201 14.0133 53.3801 14.12C53.1534 14.2267 52.9668 14.3667 52.8201 14.54C52.6734 14.7 52.5601 14.8867 52.4801 15.1C52.4134 15.3 52.3734 15.5067 52.3601 15.72L55.7801 15.16C55.7401 14.8933 55.5934 14.6267 55.3401 14.36C55.0868 14.0933 54.7134 13.96 54.2201 13.96ZM64.0167 18.16C64.0167 18.5067 64.1233 18.7533 64.3367 18.9C64.5633 19.0467 64.8767 19.12 65.2767 19.12C65.4767 19.12 65.6833 19.1067 65.8967 19.08C66.11 19.04 66.2967 18.9933 66.4567 18.94C66.5767 19.0867 66.6767 19.2533 66.7567 19.44C66.85 19.6133 66.8967 19.8267 66.8967 20.08C66.8967 20.5867 66.7033 21 66.3167 21.32C65.9433 21.64 65.2767 21.8 64.3167 21.8C63.1433 21.8 62.2367 21.5333 61.5967 21C60.97 20.4667 60.6567 19.6 60.6567 18.4V9.84C60.8033 9.8 61.01 9.76 61.2767 9.72C61.5567 9.66667 61.85 9.64 62.1567 9.64C62.7433 9.64 63.1967 9.74667 63.5167 9.96C63.85 10.16 64.0167 10.5933 64.0167 11.26V12.54H66.6367C66.7167 12.6867 66.79 12.8733 66.8567 13.1C66.9367 13.3133 66.9767 13.5533 66.9767 13.82C66.9767 14.2867 66.87 14.6267 66.6567 14.84C66.4567 15.04 66.1833 15.14 65.8367 15.14H64.0167V18.16ZM73.9873 14.16C73.654 14.16 73.334 14.2133 73.0273 14.32C72.734 14.4267 72.474 14.5867 72.2473 14.8C72.034 15 71.8606 15.2533 71.7273 15.56C71.594 15.8667 71.5273 16.2267 71.5273 16.64C71.5273 17.4667 71.7606 18.0867 72.2273 18.5C72.7073 18.9133 73.2873 19.12 73.9673 19.12C74.3673 19.12 74.714 19.0733 75.0073 18.98C75.3006 18.8867 75.5606 18.7867 75.7873 18.68C76.054 18.8667 76.254 19.0733 76.3873 19.3C76.5206 19.5133 76.5873 19.7733 76.5873 20.08C76.5873 20.6267 76.3273 21.0533 75.8073 21.36C75.2873 21.6533 74.5673 21.8 73.6473 21.8C72.8073 21.8 72.0473 21.68 71.3673 21.44C70.6873 21.1867 70.1006 20.84 69.6073 20.4C69.1273 19.9467 68.754 19.4067 68.4873 18.78C68.2206 18.1533 68.0873 17.46 68.0873 16.7C68.0873 15.82 68.2273 15.0533 68.5073 14.4C68.8006 13.7333 69.194 13.1867 69.6873 12.76C70.1806 12.3333 70.7473 12.0133 71.3873 11.8C72.0406 11.5867 72.7273 11.48 73.4473 11.48C74.4073 11.48 75.1473 11.6533 75.6673 12C76.1873 12.3467 76.4473 12.7933 76.4473 13.34C76.4473 13.5933 76.3873 13.8333 76.2673 14.06C76.1473 14.2733 76.0073 14.46 75.8473 14.62C75.6206 14.5133 75.3473 14.4133 75.0273 14.32C74.7073 14.2133 74.3606 14.16 73.9873 14.16ZM82.4524 19.34C82.6791 19.34 82.9258 19.32 83.1924 19.28C83.4724 19.2267 83.6791 19.16 83.8124 19.08V17.48L82.3724 17.6C81.9991 17.6267 81.6924 17.7067 81.4524 17.84C81.2124 17.9733 81.0924 18.1733 81.0924 18.44C81.0924 18.7067 81.1924 18.9267 81.3924 19.1C81.6058 19.26 81.9591 19.34 82.4524 19.34ZM82.2924 11.48C83.0124 11.48 83.6658 11.5533 84.2524 11.7C84.8524 11.8467 85.3591 12.0733 85.7724 12.38C86.1991 12.6733 86.5258 13.0533 86.7524 13.52C86.9791 13.9733 87.0924 14.5133 87.0924 15.14V19.62C87.0924 19.9667 86.9924 20.2533 86.7924 20.48C86.6058 20.6933 86.3791 20.88 86.1124 21.04C85.2458 21.56 84.0258 21.82 82.4524 21.82C81.7458 21.82 81.1058 21.7533 80.5324 21.62C79.9724 21.4867 79.4858 21.2867 79.0724 21.02C78.6724 20.7533 78.3591 20.4133 78.1324 20C77.9191 19.5867 77.8124 19.1067 77.8124 18.56C77.8124 17.64 78.0858 16.9333 78.6324 16.44C79.1791 15.9467 80.0258 15.64 81.1724 15.52L83.7924 15.24V15.1C83.7924 14.7133 83.6191 14.44 83.2724 14.28C82.9391 14.1067 82.4524 14.02 81.8124 14.02C81.3058 14.02 80.8124 14.0733 80.3324 14.18C79.8524 14.2867 79.4191 14.42 79.0324 14.58C78.8591 14.46 78.7124 14.28 78.5924 14.04C78.4724 13.7867 78.4124 13.5267 78.4124 13.26C78.4124 12.9133 78.4924 12.64 78.6524 12.44C78.8258 12.2267 79.0858 12.0467 79.4324 11.9C79.8191 11.7533 80.2724 11.6467 80.7924 11.58C81.3258 11.5133 81.8258 11.48 82.2924 11.48ZM92.6313 21.48C92.4847 21.5067 92.2647 21.54 91.9713 21.58C91.6913 21.6333 91.4047 21.66 91.1113 21.66C90.818 21.66 90.5513 21.64 90.3113 21.6C90.0847 21.56 89.8913 21.48 89.7313 21.36C89.5713 21.24 89.4447 21.08 89.3513 20.88C89.2713 20.6667 89.2313 20.3933 89.2313 20.06V8.46C89.378 8.43333 89.5913 8.4 89.8713 8.36C90.1647 8.30667 90.458 8.28 90.7513 8.28C91.0447 8.28 91.3047 8.3 91.5313 8.34C91.7713 8.38 91.9713 8.46 92.1313 8.58C92.2913 8.7 92.4113 8.86667 92.4913 9.08C92.5847 9.28 92.6313 9.54667 92.6313 9.88V21.48ZM98.2368 21.48C98.0902 21.5067 97.8701 21.54 97.5768 21.58C97.2968 21.6333 97.0101 21.66 96.7168 21.66C96.4235 21.66 96.1568 21.64 95.9168 21.6C95.6901 21.56 95.4968 21.48 95.3368 21.36C95.1768 21.24 95.0501 21.08 94.9568 20.88C94.8768 20.6667 94.8368 20.3933 94.8368 20.06V8.46C94.9835 8.43333 95.1968 8.4 95.4768 8.36C95.7701 8.30667 96.0635 8.28 96.3568 8.28C96.6501 8.28 96.9101 8.3 97.1368 8.34C97.3768 8.38 97.5768 8.46 97.7368 8.58C97.8968 8.7 98.0168 8.86667 98.0968 9.08C98.1901 9.28 98.2368 9.54667 98.2368 9.88V21.48ZM100.302 9.08C100.302 8.57333 100.469 8.14667 100.802 7.8C101.149 7.45333 101.602 7.28 102.162 7.28C102.722 7.28 103.169 7.45333 103.502 7.8C103.849 8.14667 104.022 8.57333 104.022 9.08C104.022 9.58667 103.849 10.0133 103.502 10.36C103.169 10.7067 102.722 10.88 102.162 10.88C101.602 10.88 101.149 10.7067 100.802 10.36C100.469 10.0133 100.302 9.58667 100.302 9.08ZM103.862 21.48C103.716 21.5067 103.496 21.54 103.202 21.58C102.922 21.6333 102.636 21.66 102.342 21.66C102.049 21.66 101.782 21.64 101.542 21.6C101.316 21.56 101.122 21.48 100.962 21.36C100.802 21.24 100.676 21.08 100.582 20.88C100.502 20.6667 100.462 20.3933 100.462 20.06V11.92C100.609 11.8933 100.822 11.86 101.102 11.82C101.396 11.7667 101.689 11.74 101.982 11.74C102.276 11.74 102.536 11.76 102.762 11.8C103.002 11.84 103.202 11.92 103.362 12.04C103.522 12.16 103.642 12.3267 103.722 12.54C103.816 12.74 103.862 13.0067 103.862 13.34V21.48Z" fill="black"/>
<defs>
<linearGradient id="paint0_linear_284_305" x1="2.7461" y1="9.89355" x2="2.7461" y2="17.816" gradientUnits="userSpaceOnUse">
<stop/>
</linearGradient>
</defs>
</svg>
