<svg width="25" height="24" viewBox="0 0 25 24" fill="none" xmlns="http://www.w3.org/2000/svg">
<path d="M9.42383 22C9.97611 22 10.4238 21.5523 10.4238 21C10.4238 20.4477 9.97611 20 9.42383 20C8.87154 20 8.42383 20.4477 8.42383 21C8.42383 21.5523 8.87154 22 9.42383 22Z" stroke="black" stroke-width="2" stroke-linecap="round" stroke-linejoin="round"/>
<path d="M20.4238 22C20.9761 22 21.4238 21.5523 21.4238 21C21.4238 20.4477 20.9761 20 20.4238 20C19.8715 20 19.4238 20.4477 19.4238 21C19.4238 21.5523 19.8715 22 20.4238 22Z" stroke="black" stroke-width="2" stroke-linecap="round" stroke-linejoin="round"/>
<path d="M1.42383 1H5.42383L8.10383 14.39C8.19527 14.8504 8.44574 15.264 8.81137 15.5583C9.17701 15.8526 9.63453 16.009 10.1038 16H19.8238C20.2931 16.009 20.7506 15.8526 21.1163 15.5583C21.4819 15.264 21.7324 14.8504 21.8238 14.39L23.4238 6H6.42383" stroke="black" stroke-width="2" stroke-linecap="round" stroke-linejoin="round"/>
</svg>
